<?xml version="1.0" encoding="utf-8"?>
<!-- Generator: Adobe Illustrator 26.0.1, SVG Export Plug-In . SVG Version: 6.00 Build 0)  -->
<svg version="1.1" id="Layer_1" xmlns="http://www.w3.org/2000/svg" xmlns:xlink="http://www.w3.org/1999/xlink" x="0px" y="0px"
	 viewBox="0 0 1920 1080" style="enable-background:new 0 0 1920 1080;" xml:space="preserve">
<style type="text/css">
	.st0{fill:#FFEAA7;}
</style>
<g>
	<path class="st0" d="M704.69,755.5c-36.46,0-71.54-14.58-98.8-41.05l-14.42-14.01v54.65c-22.16-2.14-42.77-12.61-58.76-30.02
		c-18.19-19.83-28.21-46.24-28.21-74.36V317.29c0-54.64,38.29-99.65,86.97-104.38v271.52l14.42-14.01
		c27.25-26.47,62.34-41.05,98.79-41.05c41.24,0,79.85,18.29,107.91,50.66C746.18,491.91,696.18,552.27,696.18,624
		c0,49.27,23.42,94.34,62.09,121.3C740.54,752.08,722.57,755.5,704.69,755.5z"/>
	<path d="M582.97,222.85v241.48v40.21l28.84-28.02c25.66-24.92,58.64-38.64,92.87-38.64c21.75,0,42.59,5.32,61.95,15.82
		c10.57,5.73,20.52,12.99,29.5,21.49C733.31,493.54,687.68,553.59,687.68,624c0,46.34,19.63,89.19,52.8,118.17
		c-11.92,3.21-23.88,4.83-35.79,4.83c-34.23,0-67.21-13.73-92.87-38.65l-28.84-28.02v40.21v24.62
		c-16.51-3.61-31.73-12.48-43.99-25.84C522.23,701.07,513,676.7,513,650.71V317.29C513,270.63,543.12,231.62,582.97,222.85
		 M599.97,204C542.55,204,496,254.72,496,317.29v333.42c0,31.29,11.64,59.61,30.45,80.11c18.82,20.5,44.81,33.18,73.52,33.18v-43.45
		C627.8,747.58,664.48,764,704.69,764c23.14,0,47.45-5.44,71.91-17.42c-42.69-22.77-71.92-69.11-71.92-122.58
		c0-73.23,54.82-133.09,123.97-137.33c-28.82-40.05-73.64-65.79-123.97-65.79c-40.2,0-76.88,16.42-104.71,43.45V204L599.97,204z"/>
</g>
<g>
	<path class="st0" d="M825.5,751.07c-19.68,0-38.49-4.71-55.9-13.99C728.01,714.9,702.18,670.8,702.18,622
		c0-68.26,50.95-124.86,115.99-128.85c2.42-0.15,4.88-0.22,7.33-0.22c22.19,0,43.58,6.1,62.45,17.74
		c-30.16,27.72-47.24,66.95-47.24,109.33c0,43.11,18.45,84.03,49.86,111.67C871.08,744.39,848.79,751.07,825.5,751.07z"/>
	<path d="M825.5,501.43c16.93,0,33.37,3.83,48.41,11.2c-26.74,28.61-41.7,66.62-41.7,107.37c0,41.56,16.25,81.22,44.33,110.05
		c-15.74,8.23-33.07,12.52-51.04,12.52c-18.27,0-35.73-4.37-51.9-12.99c-18.58-9.91-34.27-24.96-45.38-43.51
		c-11.47-19.16-17.54-41.31-17.54-64.07c0-63.78,47.44-116.65,108.01-120.36C820.94,501.5,823.23,501.43,825.5,501.43 M825.5,484.43
		c-2.64,0-5.25,0.08-7.85,0.24c-69.15,4.24-123.97,64.1-123.97,137.33c0,53.47,29.23,99.81,71.92,122.58
		c17.97,9.58,38.33,14.99,59.9,14.99c29.67,0,57.05-10.23,79.07-27.49c-33.51-24.95-55.36-65.85-55.36-112.08
		c0-45.02,20.72-84.99,52.75-110.08C880.4,493.87,854,484.43,825.5,484.43L825.5,484.43z"/>
</g>
<g>
	<path class="st0" d="M972.03,751.07c-25.77,0-50.45-8.23-71.39-23.81c-32.52-24.21-51.93-63.56-51.93-105.26
		c0-41.07,18.04-78.75,49.49-103.39c21.44-16.8,46.97-25.68,73.83-25.68c27.24,0,52.88,9.02,74.42,26.14v205.86
		C1024.91,742.05,999.27,751.07,972.03,751.07z"/>
	<path d="M972.03,501.43c23.95,0,46.59,7.52,65.92,21.83v197.47c-19.33,14.31-41.97,21.83-65.92,21.83
		c-23.93,0-46.86-7.65-66.31-22.13c-14.65-10.91-26.83-25.46-35.22-42.08c-8.69-17.23-13.29-36.72-13.29-56.36
		c0-19.4,4.25-37.92,12.63-55.04c7.97-16.28,19.59-30.68,33.6-41.66C923.38,509.68,947.09,501.43,972.03,501.43 M972.03,484.43
		c-29.67,0-57.04,10.23-79.07,27.49c-32.03,25.09-52.75,65.06-52.75,110.08c0,46.23,21.85,87.13,55.36,112.08
		c21.57,16.05,47.96,25.49,76.46,25.49c31.42,0,60.27-11.47,82.92-30.62v-213.9C1032.3,495.9,1003.45,484.43,972.03,484.43
		L972.03,484.43z"/>
</g>
<g>
	<path class="st0" d="M1302.13,755.5c-51.94,0-106.73-21.16-146.56-56.59l-14.15-12.59v18.94c0,13.55-4.81,26.27-13.55,35.79
		c-8.55,9.32-19.86,14.45-31.85,14.45h-41.57V212.91c22.16,2.14,42.77,12.61,58.76,30.02c18.19,19.83,28.21,46.24,28.21,74.36
		v181.25l14.15-12.58c39.84-35.43,94.63-56.58,146.56-56.58h1.1c22.47,0.13,42.36,11.92,51.85,30.77
		c8.53,16.94,6.84,36.3-4.52,51.81l-40.83,55.71c-10.68,14.59-10.7,34.98-0.05,49.58l40.84,56.01c11.27,15.46,12.92,34.76,4.4,51.62
		c-9.47,18.76-29.29,30.5-51.71,30.64H1302.13z"/>
	<path d="M1062.95,222.83c16.51,3.61,31.73,12.48,43.99,25.84c16.75,18.26,25.98,42.62,25.98,68.62v162.32v37.87l28.3-25.17
		c18.54-16.49,41.19-30.22,65.49-39.7c24.7-9.64,50.78-14.73,75.43-14.73h1.04c19.3,0.12,36.28,10.12,44.32,26.09
		c7.17,14.24,5.79,29.89-3.78,42.96l-40.84,55.72c-12.84,17.54-12.86,42.05-0.06,59.6l40.84,56.01
		c9.49,13.02,10.84,28.62,3.69,42.78c-8.03,15.9-24.95,25.85-44.17,25.97h-1.04c-24.65,0-50.73-5.09-75.43-14.73
		c-24.3-9.48-46.94-23.21-65.49-39.71l-28.3-25.17v37.88c0,11.42-4.02,22.09-11.31,30.04c-6.93,7.54-16.01,11.7-25.59,11.7h-33.07
		V222.83 M1045.95,204v560h50.07c14.88,0,28.36-6.58,38.11-17.2c9.76-10.64,15.79-25.32,15.79-41.54
		c40.39,35.93,97.15,58.74,152.21,58.74h1.1c52.74-0.3,83.71-55.22,54.16-95.76l-40.84-56.01c-8.45-11.58-8.42-27.98,0.04-39.54
		l40.83-55.71c29.76-40.62-1.26-95.8-54.19-96.1h-1.1c-55.06,0-111.82,22.81-152.21,58.73V317.29c0-31.29-11.64-59.61-30.45-80.11
		C1100.65,216.68,1074.66,204,1045.95,204L1045.95,204z"/>
</g>
</svg>
