<?xml version="1.0" encoding="utf-8"?>
<!-- Generator: Adobe Illustrator 26.0.1, SVG Export Plug-In . SVG Version: 6.00 Build 0)  -->
<svg version="1.1" id="Layer_1" xmlns="http://www.w3.org/2000/svg" xmlns:xlink="http://www.w3.org/1999/xlink" x="0px" y="0px"
	 viewBox="0 0 1920 1080" style="enable-background:new 0 0 1920 1080;" xml:space="preserve">
<style type="text/css">
	.st0{fill:#FFFFFF;}
</style>
<g>
	<path class="st0" d="M703.68,753.5c-36.46,0-71.54-14.58-98.79-41.05l-14.42-14.01v54.64c-48.68-4.73-86.97-49.74-86.97-104.38
		V315.29c0-54.64,38.29-99.65,86.97-104.38v271.52l14.42-14.01c27.25-26.47,62.33-41.05,98.79-41.05c26.21,0,51.99,7.56,74.54,21.87
		c21.99,13.95,40.49,33.96,53.51,57.87c14.99,27.55,22.15,59.2,20.71,91.53c-1.61,35.95-13.43,71.21-35.14,104.79
		c-2.44,3.77-7.57,9.37-10.98,11.98C773.76,740.33,738.27,753.5,703.68,753.5z"/>
	<path d="M581.97,220.85v241.48v40.21l28.84-28.02c25.65-24.92,58.64-38.64,92.87-38.64c24.6,0,48.8,7.1,69.99,20.55
		c20.78,13.18,38.27,32.11,50.59,54.76c14.25,26.19,21.06,56.3,19.68,87.08c-1.54,34.42-12.91,68.25-33.79,100.55
		c-1.91,2.95-6.37,7.82-9.01,9.85c-16.17,12.38-32.99,21.74-49.99,27.83c-15.75,5.65-31.73,8.51-47.48,8.51
		c-34.23,0-67.21-13.72-92.87-38.64l-28.84-28.02l0,40.21l0,24.6c-39.85-8.78-69.97-47.79-69.97-94.45V315.29
		C512,268.64,542.12,229.62,581.97,220.85 M598.97,202L598.97,202C541.55,202,495,252.72,495,315.29v333.41
		C495,711.28,541.55,762,598.97,762h0v-43.45C626.8,745.58,663.47,762,703.68,762c34.46,0,71.51-12.06,107.8-39.84
		c4.18-3.2,10.01-9.56,12.95-14.11c90.05-139.28,0.71-289.16-120.75-289.16c-40.21,0-76.89,16.42-104.71,43.45V202L598.97,202z"/>
</g>
<g>
	<ellipse class="st0" cx="835.5" cy="622" rx="123.32" ry="129.07"/>
	<path d="M835.5,501.43c30.53,0,59.27,12.45,80.94,35.06c21.85,22.8,33.88,53.17,33.88,85.52s-12.03,62.71-33.88,85.52
		c-21.66,22.61-50.4,35.06-80.94,35.06s-59.27-12.45-80.94-35.06c-21.85-22.8-33.88-53.17-33.88-85.52s12.03-62.71,33.88-85.52
		C776.23,513.88,804.97,501.43,835.5,501.43 M835.5,484.43c-72.8,0-131.82,61.59-131.82,137.57S762.7,759.57,835.5,759.57
		S967.32,697.98,967.32,622S908.3,484.43,835.5,484.43L835.5,484.43z"/>
</g>
<g>
	<ellipse class="st0" cx="984.03" cy="622" rx="123.32" ry="129.07"/>
	<path d="M984.03,501.43c30.53,0,59.27,12.45,80.94,35.06c21.85,22.8,33.88,53.17,33.88,85.52s-12.03,62.71-33.88,85.52
		c-21.66,22.61-50.4,35.06-80.94,35.06c-30.53,0-59.27-12.45-80.94-35.06c-21.85-22.8-33.88-53.17-33.88-85.52
		s12.03-62.71,33.88-85.52C924.75,513.88,953.5,501.43,984.03,501.43 M984.03,484.43c-72.8,0-131.82,61.59-131.82,137.57
		s59.02,137.57,131.82,137.57s131.82-61.59,131.82-137.57S1056.83,484.43,984.03,484.43L984.03,484.43z"/>
</g>
<g>
	<path class="st0" d="M1311.13,753.5c-51.93,0-106.71-21.15-146.56-56.59l-14.15-12.58v18.93c0,27.7-20.37,50.24-45.4,50.24h-41.57
		V210.91c48.68,4.73,86.97,49.74,86.97,104.38v181.25l14.15-12.58c39.84-35.43,94.63-56.59,146.56-56.59h1.11
		c22.47,0.13,42.36,11.92,51.85,30.77c8.53,16.94,6.84,36.3-4.52,51.8l-40.83,55.71c-10.68,14.59-10.7,34.97-0.06,49.58l40.84,56.01
		c11.27,15.46,12.92,34.76,4.4,51.61c-9.47,18.76-29.29,30.5-51.71,30.64H1311.13z"/>
	<path d="M1071.95,220.85c39.85,8.78,69.97,47.79,69.97,94.45v162.32v37.87l28.3-25.17c18.55-16.49,41.19-30.22,65.49-39.7
		c24.7-9.64,50.78-14.73,75.42-14.73h1.05c19.3,0.12,36.28,10.12,44.32,26.09c7.17,14.24,5.79,29.89-3.78,42.96l-40.84,55.72
		c-12.83,17.53-12.86,42.04-0.06,59.61l40.84,56.01c9.49,13.02,10.84,28.61,3.69,42.78c-8.03,15.9-24.95,25.85-44.16,25.97h-1.05
		c-24.64,0-50.72-5.09-75.42-14.73c-24.3-9.48-46.94-23.21-65.49-39.7l-28.3-25.17v37.87c0,23.01-16.55,41.74-36.9,41.74h-33.07
		L1071.95,220.85 M1054.95,202L1054.95,202l0,560h50.07c29.77,0,53.9-26.3,53.9-58.74v0c40.39,35.92,97.15,58.74,152.2,58.74h1.11
		c52.73-0.3,83.7-55.22,54.15-95.76l-40.84-56.01c-8.44-11.59-8.42-27.98,0.04-39.55l40.83-55.71c29.76-40.62-1.26-95.8-54.19-96.1
		h-1.11c-55.05,0-111.81,22.81-152.2,58.74V315.29C1158.92,252.72,1112.37,202,1054.95,202L1054.95,202z"/>
</g>
</svg>
