<svg id="Layer_1" data-name="Layer 1" xmlns="http://www.w3.org/2000/svg" viewBox="0 0 883 560"><path d="M703.68,753.5c-36.45,0-71.54-14.58-98.79-41l-14.42-14v54.64c-48.68-4.74-87-49.74-87-104.38V315.29c0-54.64,38.29-99.64,87-104.38V482.43l14.42-14c27.25-26.46,62.34-41,98.79-41a139,139,0,0,1,74.54,21.87,157.54,157.54,0,0,1,53.51,57.87,175,175,0,0,1,20.71,91.52c-1.61,36-13.43,71.21-35.14,104.79a59,59,0,0,1-11,12C773.76,740.33,738.27,753.5,703.68,753.5Z" transform="translate(-495 -202)" style="fill:rgba(121, 70, 179, 0.4)"/><path d="M582,220.85V502.54l28.84-28c25.66-24.92,58.64-38.64,92.87-38.64a130.59,130.59,0,0,1,70,20.54,149,149,0,0,1,50.59,54.76A166.46,166.46,0,0,1,844,598.26c-1.54,34.43-12.91,68.26-33.79,100.55a51.14,51.14,0,0,1-9,9.85c-16.17,12.38-33,21.74-50,27.83A140.47,140.47,0,0,1,703.68,745c-34.23,0-67.21-13.72-92.87-38.64l-28.84-28v64.81c-39.85-8.77-70-47.79-70-94.44V315.29c0-46.65,30.12-85.67,70-94.44M599,202h0c-57.42,0-104,50.72-104,113.29V648.71C495,711.28,541.55,762,599,762h0V718.55c27.83,27,64.5,43.45,104.71,43.45,34.46,0,71.52-12.06,107.8-39.84A67.34,67.34,0,0,0,824.43,708c90.05-139.28.71-289.16-120.75-289.16-40.2,0-76.88,16.42-104.71,43.45V202Z" transform="translate(-495 -202)"/><ellipse cx="340.5" cy="420" rx="123.32" ry="129.07" style="fill:rgba(121, 70, 179, 0.4)"/><path d="M835.5,501.43c30.53,0,59.28,12.45,80.94,35.05,21.85,22.81,33.88,53.18,33.88,85.52s-12,62.71-33.88,85.52c-21.66,22.6-50.41,35.05-80.94,35.05s-59.27-12.45-80.93-35.05c-21.85-22.81-33.89-53.18-33.89-85.52s12-62.71,33.89-85.52c21.66-22.6,50.4-35.05,80.93-35.05m0-17C762.7,484.43,703.68,546,703.68,622s59,137.57,131.82,137.57S967.32,698,967.32,622s-59-137.57-131.82-137.57Z" transform="translate(-495 -202)"/><ellipse cx="489.03" cy="420" rx="123.32" ry="129.07" style="fill:rgba(121, 70, 179, 0.4)"/><path d="M984,501.43c30.53,0,59.27,12.45,80.93,35.05,21.85,22.81,33.89,53.18,33.89,85.52s-12,62.71-33.89,85.52c-21.66,22.6-50.4,35.05-80.93,35.05s-59.28-12.45-80.94-35.05c-21.85-22.81-33.88-53.18-33.88-85.52s12-62.71,33.88-85.52c21.66-22.6,50.41-35.05,80.94-35.05m0-17c-72.8,0-131.82,61.59-131.82,137.57s59,137.57,131.82,137.57S1115.85,698,1115.85,622s-59-137.57-131.82-137.57Z" transform="translate(-495 -202)"/><path d="M1311.13,753.5c-51.93,0-106.72-21.15-146.56-56.59l-14.15-12.58v18.93c0,27.7-20.37,50.24-45.4,50.24h-41.57V210.91c48.68,4.74,87,49.74,87,104.38V496.55L1164.57,484c39.84-35.44,94.63-56.59,146.56-56.59h1.1c22.48.13,42.36,11.92,51.85,30.77,8.53,16.94,6.84,36.3-4.51,51.8l-40.83,55.71a42.43,42.43,0,0,0-.06,49.58l40.84,56c11.27,15.46,12.91,34.75,4.4,51.61-9.47,18.76-29.28,30.5-51.71,30.64Z" transform="translate(-495 -202)" style="fill:rgba(121, 70, 179, 0.4)"/><path d="M1072,220.85c39.85,8.77,70,47.79,70,94.44V515.48l28.3-25.16a219.17,219.17,0,0,1,65.49-39.71c24.7-9.64,50.77-14.73,75.42-14.73h1c19.3.12,36.28,10.12,44.32,26.09,7.17,14.24,5.79,29.9-3.78,43l-40.83,55.71a51,51,0,0,0-.07,59.61l40.84,56c9.49,13,10.84,28.61,3.68,42.77-8,15.9-24.94,25.85-44.16,26h-1c-24.65,0-50.72-5.09-75.42-14.73a219.58,219.58,0,0,1-65.49-39.71l-28.3-25.16v37.86c0,23-16.55,41.74-36.9,41.74H1072V220.85M1055,202h0V762H1105c29.77,0,53.9-26.3,53.9-58.74h0c40.39,35.93,97.15,58.74,152.21,58.74h1.1c52.74-.3,83.71-55.22,54.16-95.76l-40.84-56a34,34,0,0,1,0-39.54L1366.42,515c29.76-40.62-1.26-95.8-54.19-96.1h-1.1c-55.06,0-111.82,22.81-152.21,58.73V315.29c0-62.57-46.55-113.29-104-113.29Z" transform="translate(-495 -202)"/></svg>