<svg id="Layer_1" data-name="Layer 1" xmlns="http://www.w3.org/2000/svg" viewBox="0 0 156.9 271.99"><path d="M352.2,367.73c-25.22,0-51.83-10.28-71.19-27.49l-6.87-6.11v9.2c0,13.45-9.89,24.4-22,24.4H231.9V104.19c23.64,2.3,42.24,24.16,42.24,50.7v88l6.87-6.12c19.36-17.21,46-27.48,71.19-27.48h.53c10.92.06,20.58,5.79,25.19,14.94a23.79,23.79,0,0,1-2.2,25.17l-19.83,27.05a20.63,20.63,0,0,0,0,24.08l19.84,27.21a23.73,23.73,0,0,1,2.14,25.07c-4.6,9.11-14.22,14.81-25.11,14.88Z" transform="translate(-227.77 -99.86)" style="fill:#ed2024"/><path d="M236,109c19.35,4.26,34,23.21,34,45.87v97.23l13.75-12.22c18.61-16.56,44.2-26.44,68.44-26.44h.49c9.38,0,17.63,4.91,21.54,12.67A19.46,19.46,0,0,1,372.39,247l-19.83,27.07a24.77,24.77,0,0,0,0,28.95l19.83,27.2A19.38,19.38,0,0,1,374.15,351c-3.9,7.72-12.12,12.56-21.42,12.61h-.53c-24.24,0-49.83-9.89-68.44-26.44L270,324.93v18.4c0,11.17-8,20.27-17.92,20.27H236V109m-8.26-9.16h0v272h24.32c14.46,0,26.18-12.77,26.18-28.52h0c19.62,17.44,47.19,28.52,73.93,28.52h.53c25.62-.14,40.66-26.82,26.31-46.5L359.2,298.14a16.52,16.52,0,0,1,0-19.21l19.83-27.05c14.46-19.73-.61-46.53-26.32-46.68h-.53c-26.74,0-54.31,11.08-73.93,28.53V154.89c0-30.39-22.61-55-50.5-55Z" transform="translate(-227.77 -99.86)" style="fill:#010101"/></svg>